<svg xmlns="http://www.w3.org/2000/svg" viewBox="0 0 263.44 272.49" fill="none">
  <path d="M187.24,247.28c-10.6-5.79-20.12-14.06-27.97-24.81l-5.72,22.82c-1.54,6.13-14.58,20.36-27.1,24.37-25.91,8.3-54.12-2.1-68.5-25.09-11.45-18.29-7.72-37.69,2.67-55.87,3.39-5.94-8.18-.32-21.83-3.06C14.47,180.77-1.82,158.97.25,134.27c-1.5-15.79,3.67-30.13,13.83-42.24,14.67-14.89,32.46-17.47,53.28-12.74.9.16,1.19-2.86.65-3.85-3.28-6-4.93-12.21-6.13-18.95-3.55-19.89,7.2-38.38,24.56-47.97,17.77-9.81,37.97-11.58,56.64-3.04,14.84,6.78,23.83,21.23,25.69,37.34.43,3.71.06,6.92,1.66,11.28,15.9-15.42,34.82-24.04,55.6-15.58,25.76,10.48,40.34,36.48,36.9,64.77s-33.28,37.51-33.74,38.66c-.38.96-.09,2.23,1.47,3.11,16.21,9.13,28.06,26.7,27.32,46.28-.67,17.74-9.9,34.43-23.31,45.19-15.56,12.48-28.61,13.63-47.44,10.75ZM177.39,138.12c0-21.97-17.81-39.78-39.78-39.78s-39.78,17.81-39.78,39.78,17.81,39.78,39.78,39.78,39.78-17.81,39.78-39.78Z" fill="#E8AFAF"/>
  <circle cx="137.61" cy="138.12" r="39.78" fill="#FFF9F7"/>
  <circle cx="137.61" cy="138.12" r="14" fill="#D88C9A" opacity=".2"/>
</svg>
